<svg xmlns="http://www.w3.org/2000/svg" viewBox="0 0 400 380" font-family="system-ui,sans-serif">
<rect width="400" height="380" fill="#0b2236"/>
<text x="200" y="22" fill="#8fd0ff" font-size="13" letter-spacing="6" text-anchor="middle" font-weight="600">WIND</text>
<line x1="200" y1="28" x2="200" y2="56" stroke="#8fd0ff" stroke-width="3"/>
<path d="M195,52 L200,62 L205,52 Z" fill="#8fd0ff"/><path d="M 200 170 L 200.0 30.0 A 140 140 0 0 1 295.5 67.6 Z" fill="#ff6b6b" fill-opacity="0.78" stroke="#0b2236" stroke-width="1"/><path d="M 200 170 L 104.5 67.6 A 140 140 0 0 1 200.0 30.0 Z" fill="#ff6b6b" fill-opacity="0.78" stroke="#0b2236" stroke-width="1"/><path d="M 200 170 L 295.5 67.6 A 140 140 0 0 1 321.2 100.0 Z" fill="#ffd35c" fill-opacity="0.78" stroke="#0b2236" stroke-width="1"/><path d="M 200 170 L 78.8 100.0 A 140 140 0 0 1 104.5 67.6 Z" fill="#ffd35c" fill-opacity="0.78" stroke="#0b2236" stroke-width="1"/><path d="M 200 170 L 321.2 100.0 A 140 140 0 0 1 337.9 145.7 Z" fill="#b6e36a" fill-opacity="0.78" stroke="#0b2236" stroke-width="1"/><path d="M 200 170 L 62.1 145.7 A 140 140 0 0 1 78.8 100.0 Z" fill="#b6e36a" fill-opacity="0.78" stroke="#0b2236" stroke-width="1"/><path d="M 200 170 L 337.9 145.7 A 140 140 0 0 1 337.9 194.3 Z" fill="#5fe0a0" fill-opacity="0.78" stroke="#0b2236" stroke-width="1"/><path d="M 200 170 L 62.1 194.3 A 140 140 0 0 1 62.1 145.7 Z" fill="#5fe0a0" fill-opacity="0.78" stroke="#0b2236" stroke-width="1"/><path d="M 200 170 L 337.9 194.3 A 140 140 0 0 1 247.9 301.6 Z" fill="#5cc8ff" fill-opacity="0.78" stroke="#0b2236" stroke-width="1"/><path d="M 200 170 L 152.1 301.6 A 140 140 0 0 1 62.1 194.3 Z" fill="#5cc8ff" fill-opacity="0.78" stroke="#0b2236" stroke-width="1"/><path d="M 200 170 L 247.9 301.6 A 140 140 0 0 1 200.0 310.0 Z" fill="#b69cff" fill-opacity="0.78" stroke="#0b2236" stroke-width="1"/><path d="M 200 170 L 200.0 310.0 A 140 140 0 0 1 152.1 301.6 Z" fill="#b69cff" fill-opacity="0.78" stroke="#0b2236" stroke-width="1"/><rect x="20" y="291" width="11" height="11" rx="2" fill="#ff6b6b"/><text x="36" y="300" fill="#eaf2f8" font-size="11">No-go</text><rect x="150" y="291" width="11" height="11" rx="2" fill="#ffd35c"/><text x="166" y="300" fill="#eaf2f8" font-size="11">Close hauled</text><rect x="280" y="291" width="11" height="11" rx="2" fill="#b6e36a"/><text x="296" y="300" fill="#eaf2f8" font-size="11">Close reach</text><rect x="20" y="317" width="11" height="11" rx="2" fill="#5fe0a0"/><text x="36" y="326" fill="#eaf2f8" font-size="11">Beam reach</text><rect x="150" y="317" width="11" height="11" rx="2" fill="#5cc8ff"/><text x="166" y="326" fill="#eaf2f8" font-size="11">Broad reach</text><rect x="280" y="317" width="11" height="11" rx="2" fill="#b69cff"/><text x="296" y="326" fill="#eaf2f8" font-size="11">Running</text><circle cx="200" cy="170" r="3" fill="#9fc0d6"/></svg>